<svg width="169" height="31" viewBox="0 0 169 31" fill="none" xmlns="http://www.w3.org/2000/svg">
<path d="M13.5156 20.3711L6.28906 20.3516L7.20703 15.0586L13.75 15.0781C14.5964 15.0781 15.3711 14.9284 16.0742 14.6289C16.7773 14.3164 17.3568 13.8672 17.8125 13.2813C18.2682 12.6953 18.5612 11.9662 18.6914 11.0938C18.8086 10.3776 18.7891 9.70705 18.6328 9.08205C18.4766 8.45705 18.1706 7.94273 17.7148 7.53908C17.2591 7.13543 16.6341 6.91408 15.8398 6.87502L11.1719 6.85549L7.14844 30H0.46875L5.39062 1.56252L16.0547 1.58205C17.9167 1.62111 19.5833 2.02476 21.0547 2.79299C22.526 3.56121 23.6654 4.64194 24.4727 6.03517C25.2799 7.4284 25.6055 9.10158 25.4492 11.0547C25.2799 13.1641 24.6094 14.9089 23.4375 16.2891C22.2786 17.6693 20.8203 18.6979 19.0625 19.375C17.3177 20.0391 15.4688 20.3711 13.5156 20.3711Z" fill="black"/>
<path d="M34.6094 14.4531L31.9141 30H25.4883L29.1602 8.8672H35.1367L34.6094 14.4531ZM41.5234 8.69142L40.6836 14.8242C40.3451 14.7722 40.0065 14.7266 39.668 14.6875C39.3294 14.6485 38.9844 14.6224 38.6328 14.6094C37.9167 14.5964 37.2656 14.681 36.6797 14.8633C36.1068 15.0326 35.6055 15.2995 35.1758 15.6641C34.7591 16.0156 34.4141 16.4584 34.1406 16.9922C33.8672 17.5261 33.6654 18.1445 33.5352 18.8477L32.4609 18.0664C32.5911 17.0768 32.7995 16.0287 33.0859 14.9219C33.3854 13.8021 33.8021 12.7474 34.3359 11.7578C34.8698 10.7682 35.5599 9.96746 36.4062 9.35548C37.2526 8.73048 38.2943 8.41798 39.5312 8.41798C39.8698 8.41798 40.2018 8.44403 40.5273 8.49611C40.8529 8.54819 41.1849 8.6133 41.5234 8.69142Z" fill="black"/>
<path d="M40.5078 19.7656L40.5469 19.3555C40.7161 17.832 41.0872 16.4063 41.6602 15.0781C42.2331 13.75 42.9948 12.5847 43.9453 11.582C44.9089 10.5794 46.0417 9.8047 47.3438 9.25783C48.6458 8.69793 50.1042 8.43752 51.7188 8.47658C53.2682 8.50262 54.6094 8.8021 55.7422 9.37502C56.875 9.94793 57.806 10.7292 58.5352 11.7188C59.2643 12.6953 59.7786 13.8281 60.0781 15.1172C60.3906 16.3932 60.4818 17.7539 60.3516 19.1992L60.3125 19.6289C60.1432 21.1393 59.7656 22.5521 59.1797 23.8672C58.5938 25.1823 57.819 26.3347 56.8555 27.3242C55.9049 28.3138 54.7786 29.082 53.4766 29.6289C52.1745 30.1758 50.7227 30.4297 49.1211 30.3906C47.5977 30.3646 46.263 30.0716 45.1172 29.5117C43.9844 28.9388 43.0534 28.1706 42.3242 27.207C41.5951 26.2305 41.0742 25.1107 40.7617 23.8477C40.4622 22.5716 40.3776 21.211 40.5078 19.7656ZM46.9727 19.3555L46.9336 19.7656C46.8945 20.2995 46.8685 20.8854 46.8555 21.5235C46.8555 22.1485 46.9271 22.7539 47.0703 23.3399C47.2135 23.9128 47.474 24.388 47.8516 24.7656C48.2422 25.1302 48.8021 25.3255 49.5312 25.3516C50.3125 25.3776 50.9635 25.2149 51.4844 24.8633C52.0182 24.5117 52.4479 24.043 52.7734 23.457C53.099 22.8711 53.3464 22.2396 53.5156 21.5625C53.6979 20.8854 53.8216 20.2344 53.8867 19.6094L53.9258 19.1992C53.9648 18.6784 53.9844 18.099 53.9844 17.461C53.9974 16.8099 53.9323 16.1914 53.7891 15.6055C53.6458 15.0195 53.3789 14.5378 52.9883 14.1602C52.5977 13.7695 52.0378 13.5612 51.3086 13.5352C50.5273 13.5091 49.8698 13.6784 49.3359 14.043C48.8151 14.4076 48.3919 14.8893 48.0664 15.4883C47.7409 16.0742 47.4935 16.7123 47.3242 17.4024C47.1549 18.0794 47.0378 18.7305 46.9727 19.3555Z" fill="black"/>
<path d="M80.7422 24.7266L79.8242 30H65.8398L66.7578 24.7266H80.7422ZM73.1836 1.56252L68.2422 30H61.5625L66.4844 1.56252H73.1836Z" fill="black"/>
<path d="M92.7539 8.8672L89.1016 30H82.6562L86.3281 8.8672H92.7539ZM86.8945 3.53517C86.8685 2.51955 87.207 1.71226 87.9102 1.1133C88.6263 0.51434 89.4661 0.20835 90.4297 0.195329C91.3542 0.182308 92.1745 0.455746 92.8906 1.01564C93.6068 1.56252 93.9714 2.32424 93.9844 3.3008C94.0104 4.31642 93.6654 5.12371 92.9492 5.72267C92.2461 6.32163 91.4128 6.62762 90.4492 6.64064C89.5247 6.65366 88.7044 6.38674 87.9883 5.83986C87.2852 5.27996 86.9206 4.51174 86.8945 3.53517Z" fill="black"/>
<path d="M104.902 23.9453C105.007 23.3985 104.844 22.9818 104.414 22.6953C103.997 22.3959 103.496 22.1745 102.91 22.0313C102.337 21.875 101.875 21.7513 101.523 21.6602C100.729 21.4518 99.9414 21.1849 99.1602 20.8594C98.3789 20.5209 97.6693 20.1042 97.0312 19.6094C96.4062 19.1016 95.9049 18.4961 95.5273 17.793C95.1628 17.0768 95 16.2435 95.0391 15.293C95.0781 14.1211 95.3711 13.1055 95.918 12.2461C96.4779 11.3867 97.2005 10.6771 98.0859 10.1172C98.9714 9.54429 99.9349 9.12111 100.977 8.84767C102.031 8.57423 103.079 8.45054 104.121 8.47658C105.553 8.4896 106.901 8.74351 108.164 9.2383C109.44 9.73309 110.475 10.4883 111.27 11.5039C112.077 12.5195 112.487 13.8086 112.5 15.3711L106.113 15.3516C106.126 14.8438 106.061 14.4011 105.918 14.0235C105.788 13.6458 105.56 13.3594 105.234 13.1641C104.909 12.9557 104.466 12.8516 103.906 12.8516C103.49 12.8516 103.079 12.9362 102.676 13.1055C102.272 13.2748 101.921 13.5156 101.621 13.8281C101.335 14.1406 101.152 14.5182 101.074 14.961C100.996 15.3386 101.048 15.6576 101.23 15.918C101.413 16.1654 101.66 16.3672 101.973 16.5235C102.285 16.6797 102.611 16.8099 102.949 16.9141C103.301 17.0052 103.613 17.0768 103.887 17.1289C105.072 17.4154 106.217 17.7995 107.324 18.2813C108.444 18.75 109.355 19.4206 110.059 20.293C110.775 21.1524 111.113 22.2982 111.074 23.7305C111.035 24.9414 110.71 25.9766 110.098 26.836C109.486 27.6823 108.698 28.3724 107.734 28.9063C106.784 29.4271 105.755 29.8047 104.648 30.0391C103.555 30.2865 102.493 30.4037 101.465 30.3906C100.033 30.3646 98.6784 30.0781 97.4023 29.5313C96.1263 28.9714 95.0846 28.1641 94.2773 27.1094C93.4831 26.0417 93.0664 24.7331 93.0273 23.1836L98.9648 23.2031C98.9779 23.8151 99.0885 24.3294 99.2969 24.7461C99.5182 25.1498 99.8372 25.4623 100.254 25.6836C100.671 25.8919 101.185 25.9961 101.797 25.9961C102.253 25.9961 102.695 25.931 103.125 25.8008C103.568 25.6576 103.945 25.4362 104.258 25.1367C104.583 24.8242 104.798 24.4271 104.902 23.9453Z" fill="black"/>
<path d="M127.402 8.8672L126.602 13.4375H114.219L115.02 8.8672H127.402ZM118.516 3.6133H124.941L121.582 23.1445C121.53 23.6003 121.53 23.9779 121.582 24.2774C121.634 24.5638 121.771 24.7852 121.992 24.9414C122.227 25.0847 122.585 25.1693 123.066 25.1953C123.34 25.2084 123.613 25.2018 123.887 25.1758C124.16 25.1498 124.434 25.1237 124.707 25.0977L124.258 29.8633C123.698 30.0456 123.125 30.1758 122.539 30.2539C121.966 30.332 121.38 30.3711 120.781 30.3711C119.453 30.3451 118.34 30.0781 117.441 29.5703C116.556 29.0495 115.911 28.3138 115.508 27.3633C115.117 26.3998 114.98 25.2539 115.098 23.9258L118.516 3.6133Z" fill="black"/>
<path d="M136.719 30.3906C135.26 30.3646 133.932 30.0977 132.734 29.5899C131.536 29.069 130.521 28.3529 129.688 27.4414C128.854 26.53 128.236 25.4623 127.832 24.2383C127.441 23.0013 127.298 21.6537 127.402 20.1953L127.48 19.4336C127.637 17.8972 128.001 16.4649 128.574 15.1367C129.147 13.7956 129.915 12.6237 130.879 11.6211C131.842 10.6055 132.975 9.81772 134.277 9.25783C135.592 8.69793 137.064 8.43752 138.691 8.47658C140.163 8.50262 141.432 8.79559 142.5 9.35548C143.581 9.91538 144.46 10.6771 145.137 11.6406C145.814 12.5912 146.283 13.6849 146.543 14.9219C146.816 16.1458 146.882 17.4479 146.738 18.8281L146.367 21.5039H129.57L130.234 17.3828L140.586 17.4024L140.703 16.836C140.794 16.224 140.768 15.6706 140.625 15.1758C140.482 14.681 140.215 14.2904 139.824 14.0039C139.434 13.7044 138.906 13.5417 138.242 13.5156C137.435 13.5026 136.764 13.6784 136.23 14.043C135.71 14.4076 135.286 14.8893 134.961 15.4883C134.648 16.0873 134.408 16.7383 134.238 17.4414C134.069 18.1315 133.945 18.7956 133.867 19.4336L133.789 20.1758C133.737 20.8138 133.757 21.4323 133.848 22.0313C133.939 22.6302 134.121 23.1706 134.395 23.6524C134.681 24.1341 135.065 24.5248 135.547 24.8242C136.029 25.1107 136.634 25.2669 137.363 25.293C138.34 25.319 139.251 25.1367 140.098 24.7461C140.944 24.3555 141.706 23.8216 142.383 23.1445L145.059 26.6992C144.473 27.5847 143.717 28.3008 142.793 28.8477C141.868 29.3815 140.872 29.7722 139.805 30.0195C138.75 30.28 137.721 30.4037 136.719 30.3906Z" fill="black"/>
<path d="M156.562 13.7305L153.73 30H147.305L150.977 8.8672H156.973L156.562 13.7305ZM154.961 18.711L153.633 18.7891C153.75 17.5261 154.01 16.2761 154.414 15.0391C154.818 13.7891 155.378 12.6628 156.094 11.6602C156.823 10.6576 157.721 9.86981 158.789 9.29689C159.87 8.71095 161.139 8.43101 162.598 8.45705C163.783 8.49611 164.753 8.75002 165.508 9.21877C166.276 9.68752 166.862 10.3125 167.266 11.0938C167.669 11.862 167.923 12.7344 168.027 13.711C168.145 14.6745 168.151 15.6706 168.047 16.6992L165.82 30H159.355L161.602 16.6406C161.667 16.0287 161.647 15.4883 161.543 15.0195C161.452 14.5508 161.23 14.1862 160.879 13.9258C160.54 13.6654 160.033 13.5287 159.355 13.5156C158.6 13.5026 157.962 13.6458 157.441 13.9453C156.934 14.2448 156.51 14.655 156.172 15.1758C155.846 15.6836 155.586 16.25 155.391 16.875C155.208 17.487 155.065 18.099 154.961 18.711Z" fill="black"/>
</svg>
