<svg width="169" height="31" viewBox="0 0 169 31" fill="none" xmlns="http://www.w3.org/2000/svg">
<path d="M13.5156 20.3711L6.28906 20.3515L7.20703 15.0586L13.75 15.0781C14.5964 15.0781 15.3711 14.9284 16.0742 14.6289C16.7773 14.3164 17.3568 13.8672 17.8125 13.2812C18.2682 12.6953 18.5612 11.9661 18.6914 11.0937C18.8086 10.3776 18.7891 9.70702 18.6328 9.08202C18.4766 8.45702 18.1706 7.94269 17.7148 7.53905C17.2591 7.1354 16.6341 6.91405 15.8398 6.87499L11.1719 6.85545L7.14844 30H0.46875L5.39062 1.56249L16.0547 1.58202C17.9167 1.62108 19.5833 2.02473 21.0547 2.79295C22.526 3.56118 23.6654 4.64191 24.4727 6.03514C25.2799 7.42837 25.6055 9.10155 25.4492 11.0547C25.2799 13.164 24.6094 14.9088 23.4375 16.289C22.2786 17.6693 20.8203 18.6979 19.0625 19.375C17.3177 20.039 15.4688 20.3711 13.5156 20.3711Z" fill="white"/>
<path d="M34.6094 14.4531L31.9141 30H25.4883L29.1602 8.86717H35.1367L34.6094 14.4531ZM41.5234 8.69139L40.6836 14.8242C40.3451 14.7721 40.0065 14.7265 39.668 14.6875C39.3294 14.6484 38.9844 14.6224 38.6328 14.6094C37.9167 14.5963 37.2656 14.681 36.6797 14.8633C36.1068 15.0325 35.6055 15.2995 35.1758 15.664C34.7591 16.0156 34.4141 16.4583 34.1406 16.9922C33.8672 17.526 33.6654 18.1445 33.5352 18.8476L32.4609 18.0664C32.5911 17.0768 32.7995 16.0286 33.0859 14.9219C33.3854 13.8021 33.8021 12.7474 34.3359 11.7578C34.8698 10.7682 35.5599 9.96743 36.4062 9.35545C37.2526 8.73045 38.2943 8.41795 39.5312 8.41795C39.8698 8.41795 40.2018 8.444 40.5273 8.49608C40.8529 8.54816 41.1849 8.61327 41.5234 8.69139Z" fill="white"/>
<path d="M40.5078 19.7656L40.5469 19.3555C40.7161 17.832 41.0872 16.4062 41.6602 15.0781C42.2331 13.75 42.9948 12.5846 43.9453 11.582C44.9089 10.5794 46.0417 9.80467 47.3438 9.2578C48.6458 8.6979 50.1042 8.43749 51.7188 8.47655C53.2682 8.50259 54.6094 8.80207 55.7422 9.37499C56.875 9.9479 57.806 10.7292 58.5352 11.7187C59.2643 12.6953 59.7786 13.8281 60.0781 15.1172C60.3906 16.3932 60.4818 17.7539 60.3516 19.1992L60.3125 19.6289C60.1432 21.1393 59.7656 22.5521 59.1797 23.8672C58.5938 25.1823 57.819 26.3346 56.8555 27.3242C55.9049 28.3138 54.7786 29.082 53.4766 29.6289C52.1745 30.1758 50.7227 30.4297 49.1211 30.3906C47.5977 30.3646 46.263 30.0716 45.1172 29.5117C43.9844 28.9388 43.0534 28.1706 42.3242 27.207C41.5951 26.2305 41.0742 25.1107 40.7617 23.8476C40.4622 22.5716 40.3776 21.2109 40.5078 19.7656ZM46.9727 19.3555L46.9336 19.7656C46.8945 20.2995 46.8685 20.8854 46.8555 21.5234C46.8555 22.1484 46.9271 22.7539 47.0703 23.3398C47.2135 23.9127 47.474 24.388 47.8516 24.7656C48.2422 25.1302 48.8021 25.3255 49.5312 25.3515C50.3125 25.3776 50.9635 25.2148 51.4844 24.8633C52.0182 24.5117 52.4479 24.043 52.7734 23.457C53.099 22.8711 53.3464 22.2396 53.5156 21.5625C53.6979 20.8854 53.8216 20.2344 53.8867 19.6094L53.9258 19.1992C53.9648 18.6784 53.9844 18.0989 53.9844 17.4609C53.9974 16.8099 53.9323 16.1914 53.7891 15.6055C53.6458 15.0195 53.3789 14.5377 52.9883 14.1601C52.5977 13.7695 52.0378 13.5612 51.3086 13.5351C50.5273 13.5091 49.8698 13.6784 49.3359 14.043C48.8151 14.4075 48.3919 14.8893 48.0664 15.4883C47.7409 16.0742 47.4935 16.7122 47.3242 17.4023C47.1549 18.0794 47.0378 18.7305 46.9727 19.3555Z" fill="white"/>
<path d="M80.7422 24.7265L79.8242 30H65.8398L66.7578 24.7265H80.7422ZM73.1836 1.56249L68.2422 30H61.5625L66.4844 1.56249H73.1836Z" fill="white"/>
<path d="M92.7539 8.86717L89.1016 30H82.6562L86.3281 8.86717H92.7539ZM86.8945 3.53514C86.8685 2.51952 87.207 1.71223 87.9102 1.11327C88.6263 0.514309 89.4661 0.208319 90.4297 0.195299C91.3542 0.182278 92.1745 0.455715 92.8906 1.01561C93.6068 1.56249 93.9714 2.3242 93.9844 3.30077C94.0104 4.31639 93.6654 5.12368 92.9492 5.72264C92.2461 6.3216 91.4128 6.62759 90.4492 6.64061C89.5247 6.65363 88.7044 6.3867 87.9883 5.83983C87.2852 5.27993 86.9206 4.5117 86.8945 3.53514Z" fill="white"/>
<path d="M104.902 23.9453C105.007 23.3984 104.844 22.9818 104.414 22.6953C103.997 22.3958 103.496 22.1745 102.91 22.0312C102.337 21.875 101.875 21.7513 101.523 21.6601C100.729 21.4518 99.9414 21.1849 99.1602 20.8594C98.3789 20.5208 97.6693 20.1042 97.0312 19.6094C96.4062 19.1015 95.9049 18.4961 95.5273 17.793C95.1628 17.0768 95 16.2435 95.0391 15.293C95.0781 14.1211 95.3711 13.1055 95.918 12.2461C96.4779 11.3867 97.2005 10.6771 98.0859 10.1172C98.9714 9.54426 99.9349 9.12108 100.977 8.84764C102.031 8.5742 103.079 8.45051 104.121 8.47655C105.553 8.48957 106.901 8.74348 108.164 9.23827C109.44 9.73306 110.475 10.4883 111.27 11.5039C112.077 12.5195 112.487 13.8086 112.5 15.3711L106.113 15.3515C106.126 14.8437 106.061 14.401 105.918 14.0234C105.788 13.6458 105.56 13.3594 105.234 13.164C104.909 12.9557 104.466 12.8515 103.906 12.8515C103.49 12.8515 103.079 12.9362 102.676 13.1055C102.272 13.2747 101.921 13.5156 101.621 13.8281C101.335 14.1406 101.152 14.5182 101.074 14.9609C100.996 15.3385 101.048 15.6575 101.23 15.918C101.413 16.1654 101.66 16.3672 101.973 16.5234C102.285 16.6797 102.611 16.8099 102.949 16.914C103.301 17.0052 103.613 17.0768 103.887 17.1289C105.072 17.4154 106.217 17.7995 107.324 18.2812C108.444 18.75 109.355 19.4206 110.059 20.293C110.775 21.1523 111.113 22.2982 111.074 23.7305C111.035 24.9414 110.71 25.9765 110.098 26.8359C109.486 27.6823 108.698 28.3724 107.734 28.9062C106.784 29.4271 105.755 29.8047 104.648 30.039C103.555 30.2864 102.493 30.4036 101.465 30.3906C100.033 30.3646 98.6784 30.0781 97.4023 29.5312C96.1263 28.9713 95.0846 28.164 94.2773 27.1094C93.4831 26.0417 93.0664 24.7331 93.0273 23.1836L98.9648 23.2031C98.9779 23.8151 99.0885 24.3294 99.2969 24.7461C99.5182 25.1497 99.8372 25.4622 100.254 25.6836C100.671 25.8919 101.185 25.9961 101.797 25.9961C102.253 25.9961 102.695 25.931 103.125 25.8008C103.568 25.6575 103.945 25.4362 104.258 25.1367C104.583 24.8242 104.798 24.4271 104.902 23.9453Z" fill="white"/>
<path d="M127.402 8.86717L126.602 13.4375H114.219L115.02 8.86717H127.402ZM118.516 3.61327H124.941L121.582 23.1445C121.53 23.6002 121.53 23.9779 121.582 24.2773C121.634 24.5638 121.771 24.7851 121.992 24.9414C122.227 25.0846 122.585 25.1693 123.066 25.1953C123.34 25.2083 123.613 25.2018 123.887 25.1758C124.16 25.1497 124.434 25.1237 124.707 25.0976L124.258 29.8633C123.698 30.0456 123.125 30.1758 122.539 30.2539C121.966 30.332 121.38 30.3711 120.781 30.3711C119.453 30.345 118.34 30.0781 117.441 29.5703C116.556 29.0495 115.911 28.3138 115.508 27.3633C115.117 26.3997 114.98 25.2539 115.098 23.9258L118.516 3.61327Z" fill="white"/>
<path d="M136.719 30.3906C135.26 30.3646 133.932 30.0976 132.734 29.5898C131.536 29.069 130.521 28.3529 129.688 27.4414C128.854 26.5299 128.236 25.4622 127.832 24.2383C127.441 23.0013 127.298 21.6536 127.402 20.1953L127.48 19.4336C127.637 17.8971 128.001 16.4648 128.574 15.1367C129.147 13.7956 129.915 12.6237 130.879 11.6211C131.842 10.6055 132.975 9.81769 134.277 9.2578C135.592 8.6979 137.064 8.43749 138.691 8.47655C140.163 8.50259 141.432 8.79556 142.5 9.35545C143.581 9.91535 144.46 10.6771 145.137 11.6406C145.814 12.5911 146.283 13.6849 146.543 14.9219C146.816 16.1458 146.882 17.4479 146.738 18.8281L146.367 21.5039H129.57L130.234 17.3828L140.586 17.4023L140.703 16.8359C140.794 16.2239 140.768 15.6706 140.625 15.1758C140.482 14.681 140.215 14.2904 139.824 14.0039C139.434 13.7044 138.906 13.5417 138.242 13.5156C137.435 13.5026 136.764 13.6784 136.23 14.043C135.71 14.4075 135.286 14.8893 134.961 15.4883C134.648 16.0872 134.408 16.7383 134.238 17.4414C134.069 18.1315 133.945 18.7956 133.867 19.4336L133.789 20.1758C133.737 20.8138 133.757 21.4323 133.848 22.0312C133.939 22.6302 134.121 23.1706 134.395 23.6523C134.681 24.1341 135.065 24.5247 135.547 24.8242C136.029 25.1107 136.634 25.2669 137.363 25.293C138.34 25.319 139.251 25.1367 140.098 24.7461C140.944 24.3555 141.706 23.8216 142.383 23.1445L145.059 26.6992C144.473 27.5846 143.717 28.3008 142.793 28.8476C141.868 29.3815 140.872 29.7721 139.805 30.0195C138.75 30.2799 137.721 30.4036 136.719 30.3906Z" fill="white"/>
<path d="M156.562 13.7305L153.73 30H147.305L150.977 8.86717H156.973L156.562 13.7305ZM154.961 18.7109L153.633 18.789C153.75 17.526 154.01 16.276 154.414 15.039C154.818 13.789 155.378 12.6627 156.094 11.6601C156.823 10.6575 157.721 9.86978 158.789 9.29686C159.87 8.71092 161.139 8.43098 162.598 8.45702C163.783 8.49608 164.753 8.74999 165.508 9.21874C166.276 9.68749 166.862 10.3125 167.266 11.0937C167.669 11.862 167.923 12.7344 168.027 13.7109C168.145 14.6745 168.151 15.6706 168.047 16.6992L165.82 30H159.355L161.602 16.6406C161.667 16.0286 161.647 15.4883 161.543 15.0195C161.452 14.5508 161.23 14.1862 160.879 13.9258C160.54 13.6654 160.033 13.5286 159.355 13.5156C158.6 13.5026 157.962 13.6458 157.441 13.9453C156.934 14.2448 156.51 14.6549 156.172 15.1758C155.846 15.6836 155.586 16.25 155.391 16.875C155.208 17.487 155.065 18.0989 154.961 18.7109Z" fill="white"/>
</svg>
